<?xml version="1.0" encoding="UTF-8" standalone="no"?>
<svg
   xmlns:dc="http://purl.org/dc/elements/1.1/"
   xmlns:cc="http://creativecommons.org/ns#"
   xmlns:rdf="http://www.w3.org/1999/02/22-rdf-syntax-ns#"
   xmlns:svg="http://www.w3.org/2000/svg"
   xmlns="http://www.w3.org/2000/svg"
   xmlns:sodipodi="http://sodipodi.sourceforge.net/DTD/sodipodi-0.dtd"
   xmlns:inkscape="http://www.inkscape.org/namespaces/inkscape"
   width="800px"
   height="800px"
   viewBox="0 0 14 14"
   role="img"
   focusable="false"
   aria-hidden="true"
   version="1.1"
   id="svg25"
   sodipodi:docname="tarayici.svg"
   inkscape:version="1.0.2 (e86c870879, 2021-01-15)">
  <metadata
     id="metadata29">
    <rdf:RDF>
      <cc:Work
         rdf:about="">
        <dc:format>image/svg+xml</dc:format>
        <dc:type
           rdf:resource="http://purl.org/dc/dcmitype/StillImage" />
      </cc:Work>
    </rdf:RDF>
  </metadata>
  <sodipodi:namedview
     pagecolor="#ffffff"
     bordercolor="#666666"
     borderopacity="1"
     objecttolerance="10"
     gridtolerance="10"
     guidetolerance="10"
     inkscape:pageopacity="0"
     inkscape:pageshadow="2"
     inkscape:window-width="1920"
     inkscape:window-height="1002"
     id="namedview27"
     showgrid="false"
     inkscape:zoom="0.78625"
     inkscape:cx="155.80286"
     inkscape:cy="400"
     inkscape:window-x="0"
     inkscape:window-y="0"
     inkscape:window-maximized="1"
     inkscape:current-layer="svg25" />
  <defs
     id="defs7">
    <linearGradient
       id="a"
       x1="127.4696"
       x2="127.4696"
       y1="82.259239"
       y2="173.66644"
       gradientUnits="userSpaceOnUse">
      <stop
         offset="0%"
         stop-color="#86BBE5"
         id="stop2" />
      <stop
         offset="100%"
         stop-color="#1072BA"
         id="stop4" />
    </linearGradient>
  </defs>
  <path
     fill="#ef3f36"
     d="M6.98477663 1.00106312s3.52400739-.15814053 5.39235825 3.38402026H6.68491785S5.61068512 4.3504609 4.69304895 5.6536699c-.26359875.54698845-.54694167 1.11044598-.22897627 2.22089196-.4580461-.7760115-2.4317616-4.21271409-2.4317616-4.21271409s1.39215135-2.52075074 4.95241877-2.66078465z"
     id="path9"
     style="fill:#ff3f36;fill-opacity:1" />
  <path
     fill="#fcd900"
     d="M12.19424395 9.9932707S10.56811011 13.12520187 6.56795 12.97033643c.49425935-.85508177 2.8469039-4.9293995 2.8469039-4.9293995s.56841696-.91272352-.10213633-2.35924153c-.34107825-.50249388-.6887067-1.02805382-1.80897798-1.30816843.9012139-.00818775 4.8635232 0 4.8635232 0s1.4843688 2.46638408-.17301884 5.61974375z"
     id="path11" />
  <path
     fill="#61bc5b"
     d="M1.80001293 10.01797431s-1.89960467-2.97379061.23557325-6.36108598c.4926218.85508178 2.84526634 4.9293995 2.84526634 4.9293995s.50745332.94898356 2.09400524 1.09060823c.604677-.04444778 1.23401082-.08234536 2.03804782-.91103919-.44326137.78424604-2.43185518 4.21107654-2.43185518 4.21107654s-2.87984204.0527291-4.78108426-2.9589591z"
     id="path13" />
  <path
     fill="#5ab055"
     d="M6.56631245 12.99999947l.80066833-3.34116324s.87978538-.06924497 1.6178993-.87814783c-.4580461.80567455-2.41856763 4.21931107-2.41856763 4.21931107z"
     id="path15" />
  <path
     fill="#ffffff"
     d="M4.30261026 7.03758671c0-1.47285917 1.19447568-2.66733485 2.66733485-2.66733485S9.63727996 5.56472754 9.63727996 7.0375867c0 1.47290595-1.19447568 2.66733485-2.66733485 2.66733485C5.49708594 9.703284 4.30261026 8.51049265 4.30261026 7.0375867z"
     id="path17" />
  <path
     fill="url(#a)"
     d="M80.004 129.056c0-26.198 21.234-47.467 47.468-47.467 26.198 0 47.467 21.234 47.467 47.467 0 26.199-21.233 47.468-47.467 47.468-26.199 0-47.468-21.269-47.468-47.468z"
     transform="translate(1.0058948 .99942557) scale(.04679)"
     id="path19" />
  <path
     fill="#eaca05"
     d="M12.36557846 4.3752113L9.068863 5.34230148s-.49753445-.72987938-1.56676096-.96709018c.92755505-.00495944 4.86347642 0 4.86347642 0z"
     id="path21" />
  <path
     fill="#df3a32"
     d="M4.39983394 7.75263457c-.46300554-.80235266-2.36752286-4.0907868-2.36752286-4.0907868l2.44163369 2.41524574s-.25045157.51568786-.15650299 1.253755l.08234537.42178606z"
     id="path23" />
  <path
     style="fill:#ffffff;stroke-width:0.00875002"
     d="M 6.7397734,8.8356719 C 6.4259909,8.7954082 6.1258471,8.6703236 5.8639277,8.4706635 5.778501,8.4055437 5.6182149,8.2442187 5.5482442,8.1529352 5.3523053,7.8973133 5.2304676,7.607213 5.1902733,7.3005925 5.1730656,7.169325 5.1731611,6.9279837 5.1904651,6.8080099 5.2769836,6.2082565 5.6544248,5.693826 6.1964246,5.4369461 6.4485246,5.317463 6.6792768,5.2668864 6.9723122,5.2668864 c 0.4739652,0 0.8946661,0.1698183 1.2355859,0.4987503 0.1642335,0.1584591 0.2743651,0.3087549 0.368672,0.503125 0.1275662,0.26292 0.1792302,0.4916156 0.1792302,0.7933872 0,0.3972598 -0.1147228,0.7437023 -0.3529957,1.0659878 C 8.3319981,8.2239079 8.1936812,8.369388 8.1018949,8.4446295 7.8501223,8.6510188 7.5291973,8.7906717 7.2107559,8.8324158 7.1007273,8.8468393 6.8408041,8.8486364 6.7397703,8.83567 Z M 7.4039277,8.5138613 C 7.5956323,8.4534303 7.7518573,8.3722215 7.9026776,8.2545996 7.9828741,8.192056 8.1214892,8.0521107 8.1796075,7.9750113 8.3372417,7.7658963 8.4445003,7.5039525 8.4760591,7.2510259 8.4912592,7.1292047 8.4824286,6.8714868 8.4592261,6.7596193 8.3977539,6.4632739 8.2653219,6.2129585 8.056687,5.9987632 7.9266144,5.8652244 7.8082004,5.7772069 7.6558547,5.7008225 7.4246893,5.5849183 7.2266058,5.5380854 6.9664277,5.5378215 6.6910087,5.5375569 6.4495085,5.600672 6.2104902,5.7354305 5.9929002,5.8581075 5.7679605,6.0833042 5.644765,6.3018021 5.5540327,6.4627243 5.4876235,6.6536953 5.4617114,6.8282036 c -0.01699,0.1144193 -0.017325,0.3416274 -6.653e-4,0.4511825 0.03334,0.2192526 0.1165069,0.4359475 0.2370727,0.6177003 0.065838,0.099251 0.063771,0.09815 0.1218494,0.06492 C 5.923862,7.9025644 5.9509551,7.8738114 6.0075519,7.7629304 6.0737349,7.6332688 6.1444957,7.5199587 6.2084306,7.441262 6.2822326,7.350418 6.2923796,7.3342493 6.329403,7.2484787 6.348032,7.2053217 6.381455,7.1419415 6.403676,7.1076345 L 6.444078,7.0452565 6.391811,6.9938835 C 6.322386,6.9256465 6.264637,6.8482659 6.2537724,6.8089175 c -0.011096,-0.040186 0.002,-0.06261 0.054153,-0.092735 0.052738,-0.030463 0.090454,-0.039215 0.2314072,-0.053702 0.068631,-0.00705 0.1431408,-0.019974 0.1666085,-0.028891 0.02335,-0.00887 0.093116,-0.046844 0.1550363,-0.084383 0.1787776,-0.1083818 0.1939024,-0.1139913 0.3010845,-0.1116677 0.090527,0.00196 0.090698,0.00192 0.144375,-0.03052 0.1124855,-0.067995 0.2740285,-0.1906793 0.4866076,-0.3695557 0.040764,-0.034301 0.080033,-0.061227 0.087263,-0.059834 0.030069,0.00579 0.085294,0.1413025 0.093684,0.2298835 0.00509,0.053724 -0.00531,0.1068519 -0.037173,0.1899994 -0.00869,0.022687 -0.012704,0.044343 -0.00891,0.048125 0.00911,0.00908 0.040393,-0.029995 0.040393,-0.050452 0,-0.026083 0.017271,-0.02906 0.040765,-0.00703 0.01708,0.016018 0.031804,0.020604 0.066155,0.020604 0.037507,0 0.046792,0.00348 0.061431,0.023011 0.024841,0.033145 0.030667,0.1234787 0.011654,0.1807197 -0.018496,0.055685 -0.074396,0.1199064 -0.1251289,0.1437531 -0.045395,0.021339 -0.1372997,0.1110705 -0.1803077,0.1760455 -0.016463,0.024872 -0.04733,0.076721 -0.068593,0.1152215 -0.021264,0.0385 -0.056931,0.096669 -0.07926,0.1292648 -0.043938,0.064139 -0.081563,0.1536076 -0.1178787,0.2803073 -0.021334,0.074429 -0.023124,0.093806 -0.024006,0.2598028 -0.00107,0.2005218 -0.011436,0.2497253 -0.065646,0.311468 -0.061631,0.070194 -0.1231517,0.2243435 -0.1283234,0.3215348 -0.00326,0.061347 -0.012715,0.1211478 -0.026146,0.165435 -0.00591,0.019501 0.00513,0.019274 0.070911,-0.00146 z"
     id="path847"
     inkscape:connector-curvature="0" />
</svg>
